<svg width="1920" height="1019" xmlns="http://www.w3.org/2000/svg"><g><path d="M-38.85761147248559,-110.81993623636663L-102.22202685195953,370.71939186775126L-34.17978213168681,191.1679924163036Z" fill="#9c2531" stroke="#9c2531"></path><path d="M-38.85761147248559,-110.81993623636663L-34.17978213168681,191.1679924163036L-7.802213917020708,86.1967959930189Z" fill="#840a25" stroke="#840a25"></path><path d="M-38.85761147248559,-110.81993623636663L-7.802213917020708,86.1967959930189L106.08336695819162,-109.55380836618133Z" fill="#620120" stroke="#620120"></path><path d="M-38.85761147248559,-110.81993623636663L106.08336695819162,-109.55380836618133L180.41740347398445,-116.25382621423341Z" fill="#50051d" stroke="#50051d"></path><path d="M106.08336695819162,-109.55380836618133L-7.802213917020708,86.1967959930189L95.83170657977462,89.59787189261988Z" fill="#870826" stroke="#870826"></path><path d="M106.08336695819162,-109.55380836618133L95.83170657977462,89.59787189261988L180.41740347398445,-116.25382621423341Z" fill="#760823" stroke="#760823"></path><path d="M180.41740347398445,-116.25382621423341L95.83170657977462,89.59787189261988L274.952530200826,14.715073757106438Z" fill="#940c27" stroke="#940c27"></path><path d="M180.41740347398445,-116.25382621423341L274.952530200826,14.715073757106438L303.82516115671024,-68.39245815761387Z" fill="#84182a" stroke="#84182a"></path><path d="M180.41740347398445,-116.25382621423341L303.82516115671024,-68.39245815761387L506.5525445865933,-87.49463461455889Z" fill="#7c262e" stroke="#7c262e"></path><path d="M180.41740347398445,-116.25382621423341L506.5525445865933,-87.49463461455889L785.0262241787277,-112.36536124255508Z" fill="#834341" stroke="#834341"></path><path d="M180.41740347398445,-116.25382621423341L785.0262241787277,-112.36536124255508L1495.3089371218812,-130.1185897004325Z" fill="#846e72" stroke="#846e72"></path><path d="M303.82516115671024,-68.39245815761387L274.952530200826,14.715073757106438L320.834161353996,106.25006182701327Z" fill="#a82333" stroke="#a82333"></path><path d="M303.82516115671024,-68.39245815761387L320.834161353996,106.25006182701327L506.5525445865933,-87.49463461455889Z" fill="#a12f38" stroke="#a12f38"></path><path d="M506.5525445865933,-87.49463461455889L320.834161353996,106.25006182701327L548.4530319296755,103.18592020426877Z" fill="#c14547" stroke="#c14547"></path><path d="M506.5525445865933,-87.49463461455889L548.4530319296755,103.18592020426877L692.9739711165894,-13.167858187807724Z" fill="#b85455" stroke="#b85455"></path><path d="M506.5525445865933,-87.49463461455889L692.9739711165894,-13.167858187807724L785.0262241787277,-112.36536124255508Z" fill="#9b5f5e" stroke="#9b5f5e"></path><path d="M692.9739711165894,-13.167858187807724L548.4530319296755,103.18592020426877L596.3542865077034,113.14211711287498Z" fill="#d6635f" stroke="#d6635f"></path><path d="M692.9739711165894,-13.167858187807724L596.3542865077034,113.14211711287498L789.2965043382719,27.673658166313544Z" fill="#cd6b6c" stroke="#cd6b6c"></path><path d="M692.9739711165894,-13.167858187807724L789.2965043382719,27.673658166313544L785.0262241787277,-112.36536124255508Z" fill="#ae6c72" stroke="#ae6c72"></path><path d="M785.0262241787277,-112.36536124255508L789.2965043382719,27.673658166313544L947.310296529904,-57.54643816733733Z" fill="#a26f77" stroke="#a26f77"></path><path d="M785.0262241787277,-112.36536124255508L947.310296529904,-57.54643816733733L1274.63048540405,-104.6326467290055Z" fill="#826c78" stroke="#826c78"></path><path d="M785.0262241787277,-112.36536124255508L1274.63048540405,-104.6326467290055L1357.676857955521,-116.74097055569291Z" fill="#6c5f6a" stroke="#6c5f6a"></path><path d="M785.0262241787277,-112.36536124255508L1357.676857955521,-116.74097055569291L1495.3089371218812,-130.1185897004325Z" fill="#5e5560" stroke="#5e5560"></path><path d="M947.310296529904,-57.54643816733733L789.2965043382719,27.673658166313544L990.8015068946406,60.15000814571977Z" fill="#b67180" stroke="#b67180"></path><path d="M947.310296529904,-57.54643816733733L990.8015068946406,60.15000814571977L1105.277909663273,-15.780765742529184Z" fill="#a66b7d" stroke="#a66b7d"></path><path d="M947.310296529904,-57.54643816733733L1105.277909663273,-15.780765742529184L1274.63048540405,-104.6326467290055Z" fill="#856170" stroke="#856170"></path><path d="M1105.277909663273,-15.780765742529184L990.8015068946406,60.15000814571977L1143.0333300016355,24.88821496022865Z" fill="#ac6878" stroke="#ac6878"></path><path d="M1105.277909663273,-15.780765742529184L1143.0333300016355,24.88821496022865L1274.63048540405,-104.6326467290055Z" fill="#8a5a6b" stroke="#8a5a6b"></path><path d="M1274.63048540405,-104.6326467290055L1143.0333300016355,24.88821496022865L1338.8318268989678,90.57817263179459Z" fill="#8f5062" stroke="#8f5062"></path><path d="M1274.63048540405,-104.6326467290055L1338.8318268989678,90.57817263179459L1357.676857955521,-116.74097055569291Z" fill="#714656" stroke="#714656"></path><path d="M1357.676857955521,-116.74097055569291L1338.8318268989678,90.57817263179459L1524.8871558811516,79.89458914729767Z" fill="#803d4e" stroke="#803d4e"></path><path d="M1357.676857955521,-116.74097055569291L1524.8871558811516,79.89458914729767L1495.3089371218812,-130.1185897004325Z" fill="#573241" stroke="#573241"></path><path d="M1495.3089371218812,-130.1185897004325L1524.8871558811516,79.89458914729767L1646.3240091968328,51.64085554075427Z" fill="#622437" stroke="#622437"></path><path d="M1495.3089371218812,-130.1185897004325L1646.3240091968328,51.64085554075427L1643.53259155876,-122.98244718112983Z" fill="#3f1f2d" stroke="#3f1f2d"></path><path d="M1643.53259155876,-122.98244718112983L1646.3240091968328,51.64085554075427L1806.2581438629422,-83.29224111279473Z" fill="#381120" stroke="#381120"></path><path d="M1643.53259155876,-122.98244718112983L1806.2581438629422,-83.29224111279473L2043.6245893279556,-100.9099025442265Z" fill="#11000c" stroke="#11000c"></path><path d="M1806.2581438629422,-83.29224111279473L1646.3240091968328,51.64085554075427L1872.780227942858,115.52681452943943Z" fill="#500c1b" stroke="#500c1b"></path><path d="M1806.2581438629422,-83.29224111279473L1872.780227942858,115.52681452943943L1965.291832202347,37.41242880001664Z" fill="#480414" stroke="#480414"></path><path d="M1806.2581438629422,-83.29224111279473L1965.291832202347,37.41242880001664L1969.5876261417288,-75.65162134589627Z" fill="#2c0010" stroke="#2c0010"></path><path d="M1806.2581438629422,-83.29224111279473L1969.5876261417288,-75.65162134589627L2043.6245893279556,-100.9099025442265Z" fill="#18000d" stroke="#18000d"></path><path d="M1969.5876261417288,-75.65162134589627L1965.291832202347,37.41242880001664L2043.6245893279556,-100.9099025442265Z" fill="#290010" stroke="#290010"></path><path d="M2043.6245893279556,-100.9099025442265L1965.291832202347,37.41242880001664L2057.9498390259687,64.87146227504127Z" fill="#3e0013" stroke="#3e0013"></path><path d="M2043.6245893279556,-100.9099025442265L2057.9498390259687,64.87146227504127L2149.1372130275704,342.30297545320354Z" fill="#6a121a" stroke="#6a121a"></path><path d="M-7.802213917020708,86.1967959930189L-34.17978213168681,191.1679924163036L74.28942872444168,231.55901594669558Z" fill="#ae2d37" stroke="#ae2d37"></path><path d="M-7.802213917020708,86.1967959930189L74.28942872444168,231.55901594669558L95.83170657977462,89.59787189261988Z" fill="#af2232" stroke="#af2232"></path><path d="M95.83170657977462,89.59787189261988L74.28942872444168,231.55901594669558L195.50447406247258,202.29319079197012Z" fill="#c5353c" stroke="#c5353c"></path><path d="M95.83170657977462,89.59787189261988L195.50447406247258,202.29319079197012L274.952530200826,14.715073757106438Z" fill="#c31e2f" stroke="#c31e2f"></path><path d="M274.952530200826,14.715073757106438L195.50447406247258,202.29319079197012L320.834161353996,106.25006182701327Z" fill="#cb2e37" stroke="#cb2e37"></path><path d="M320.834161353996,106.25006182701327L195.50447406247258,202.29319079197012L300.06117213051766,271.41684315749444Z" fill="#de5049" stroke="#de5049"></path><path d="M320.834161353996,106.25006182701327L300.06117213051766,271.41684315749444L500.20528873079456,171.15285014966503Z" fill="#e55f50" stroke="#e55f50"></path><path d="M320.834161353996,106.25006182701327L500.20528873079456,171.15285014966503L548.4530319296755,103.18592020426877Z" fill="#e0584f" stroke="#e0584f"></path><path d="M548.4530319296755,103.18592020426877L500.20528873079456,171.15285014966503L596.3542865077034,113.14211711287498Z" fill="#e86a5c" stroke="#e86a5c"></path><path d="M596.3542865077034,113.14211711287498L500.20528873079456,171.15285014966503L596.8349282315467,269.7071315185167Z" fill="#f5826a" stroke="#f5826a"></path><path d="M596.3542865077034,113.14211711287498L596.8349282315467,269.7071315185167L734.8813250812236,255.42762639233842Z" fill="#fb997e" stroke="#fb997e"></path><path d="M596.3542865077034,113.14211711287498L734.8813250812236,255.42762639233842L789.2965043382719,27.673658166313544Z" fill="#ee8278" stroke="#ee8278"></path><path d="M789.2965043382719,27.673658166313544L734.8813250812236,255.42762639233842L904.0050802088808,157.77558599947952Z" fill="#ef9189" stroke="#ef9189"></path><path d="M789.2965043382719,27.673658166313544L904.0050802088808,157.77558599947952L990.8015068946406,60.15000814571977Z" fill="#d77d84" stroke="#d77d84"></path><path d="M990.8015068946406,60.15000814571977L904.0050802088808,157.77558599947952L1066.0529901541304,204.28483578027226Z" fill="#e08e8f" stroke="#e08e8f"></path><path d="M990.8015068946406,60.15000814571977L1066.0529901541304,204.28483578027226L1167.6438969699666,109.23191512119956Z" fill="#d47f83" stroke="#d47f83"></path><path d="M990.8015068946406,60.15000814571977L1167.6438969699666,109.23191512119956L1143.0333300016355,24.88821496022865Z" fill="#bc6d79" stroke="#bc6d79"></path><path d="M1143.0333300016355,24.88821496022865L1167.6438969699666,109.23191512119956L1338.8318268989678,90.57817263179459Z" fill="#b3626c" stroke="#b3626c"></path><path d="M1167.6438969699666,109.23191512119956L1066.0529901541304,204.28483578027226L1254.272500750376,217.69111606758088Z" fill="#d68a84" stroke="#d68a84"></path><path d="M1167.6438969699666,109.23191512119956L1254.272500750376,217.69111606758088L1338.8318268989678,90.57817263179459Z" fill="#c27071" stroke="#c27071"></path><path d="M1338.8318268989678,90.57817263179459L1254.272500750376,217.69111606758088L1355.382843951229,272.5936320621986Z" fill="#c57c73" stroke="#c57c73"></path><path d="M1338.8318268989678,90.57817263179459L1355.382843951229,272.5936320621986L1554.5853483094834,208.6843608005438Z" fill="#b56d64" stroke="#b56d64"></path><path d="M1338.8318268989678,90.57817263179459L1554.5853483094834,208.6843608005438L1524.8871558811516,79.89458914729767Z" fill="#9f4b4f" stroke="#9f4b4f"></path><path d="M1524.8871558811516,79.89458914729767L1554.5853483094834,208.6843608005438L1645.844425384421,196.7163620714564Z" fill="#984a47" stroke="#984a47"></path><path d="M1524.8871558811516,79.89458914729767L1645.844425384421,196.7163620714564L1646.3240091968328,51.64085554075427Z" fill="#893238" stroke="#893238"></path><path d="M1646.3240091968328,51.64085554075427L1645.844425384421,196.7163620714564L1872.780227942858,115.52681452943943Z" fill="#7c272c" stroke="#7c272c"></path><path d="M1872.780227942858,115.52681452943943L1645.844425384421,196.7163620714564L1780.3711806994397,255.4162994446233Z" fill="#853c33" stroke="#853c33"></path><path d="M1872.780227942858,115.52681452943943L1780.3711806994397,255.4162994446233L1971.6583966941107,159.99806624371558Z" fill="#7a2f29" stroke="#7a2f29"></path><path d="M1872.780227942858,115.52681452943943L1971.6583966941107,159.99806624371558L1965.291832202347,37.41242880001664Z" fill="#6b131a" stroke="#6b131a"></path><path d="M1965.291832202347,37.41242880001664L1971.6583966941107,159.99806624371558L2057.9498390259687,64.87146227504127Z" fill="#640f19" stroke="#640f19"></path><path d="M2057.9498390259687,64.87146227504127L1971.6583966941107,159.99806624371558L2075.6111339840572,251.80084838764742Z" fill="#762825" stroke="#762825"></path><path d="M2057.9498390259687,64.87146227504127L2075.6111339840572,251.80084838764742L2149.1372130275704,342.30297545320354Z" fill="#804033" stroke="#804033"></path><path d="M-34.17978213168681,191.1679924163036L-102.22202685195953,370.71939186775126L16.501966976793483,407.044329715427Z" fill="#ab6863" stroke="#ab6863"></path><path d="M-34.17978213168681,191.1679924163036L16.501966976793483,407.044329715427L74.28942872444168,231.55901594669558Z" fill="#b75855" stroke="#b75855"></path><path d="M74.28942872444168,231.55901594669558L16.501966976793483,407.044329715427L259.4492973026354,389.546936849365Z" fill="#ca7570" stroke="#ca7570"></path><path d="M74.28942872444168,231.55901594669558L259.4492973026354,389.546936849365L195.50447406247258,202.29319079197012Z" fill="#d66159" stroke="#d66159"></path><path d="M195.50447406247258,202.29319079197012L259.4492973026354,389.546936849365L300.06117213051766,271.41684315749444Z" fill="#de7263" stroke="#de7263"></path><path d="M300.06117213051766,271.41684315749444L259.4492973026354,389.546936849365L349.5947629993316,411.6174198209774Z" fill="#e39282" stroke="#e39282"></path><path d="M300.06117213051766,271.41684315749444L349.5947629993316,411.6174198209774L559.9744897859637,324.8135296686087Z" fill="#ec9f83" stroke="#ec9f83"></path><path d="M300.06117213051766,271.41684315749444L559.9744897859637,324.8135296686087L500.20528873079456,171.15285014966503Z" fill="#f08b6e" stroke="#f08b6e"></path><path d="M500.20528873079456,171.15285014966503L559.9744897859637,324.8135296686087L596.8349282315467,269.7071315185167Z" fill="#f89c7c" stroke="#f89c7c"></path><path d="M596.8349282315467,269.7071315185167L559.9744897859637,324.8135296686087L674.8305257549509,296.63919898332097Z" fill="#fbb792" stroke="#fbb792"></path><path d="M596.8349282315467,269.7071315185167L674.8305257549509,296.63919898332097L734.8813250812236,255.42762639233842Z" fill="#fcb595" stroke="#fcb595"></path><path d="M734.8813250812236,255.42762639233842L674.8305257549509,296.63919898332097L844.8180592013523,306.78246233728714Z" fill="#fec6a8" stroke="#fec6a8"></path><path d="M734.8813250812236,255.42762639233842L844.8180592013523,306.78246233728714L904.0050802088808,157.77558599947952Z" fill="#fab6a1" stroke="#fab6a1"></path><path d="M904.0050802088808,157.77558599947952L844.8180592013523,306.78246233728714L987.1531515766401,336.8711700232234Z" fill="#f3c3af" stroke="#f3c3af"></path><path d="M904.0050802088808,157.77558599947952L987.1531515766401,336.8711700232234L1066.0529901541304,204.28483578027226Z" fill="#edb3a5" stroke="#edb3a5"></path><path d="M1066.0529901541304,204.28483578027226L987.1531515766401,336.8711700232234L1101.7114796640817,418.30994607065804Z" fill="#e7ceba" stroke="#e7ceba"></path><path d="M1066.0529901541304,204.28483578027226L1101.7114796640817,418.30994607065804L1254.272500750376,217.69111606758088Z" fill="#deb6a4" stroke="#deb6a4"></path><path d="M1254.272500750376,217.69111606758088L1101.7114796640817,418.30994607065804L1278.857060780283,349.898037040839Z" fill="#d5beac" stroke="#d5beac"></path><path d="M1254.272500750376,217.69111606758088L1278.857060780283,349.898037040839L1355.382843951229,272.5936320621986Z" fill="#caa290" stroke="#caa290"></path><path d="M1355.382843951229,272.5936320621986L1278.857060780283,349.898037040839L1430.2624909207225,312.3762582510244Z" fill="#c2a692" stroke="#c2a692"></path><path d="M1355.382843951229,272.5936320621986L1430.2624909207225,312.3762582510244L1554.5853483094834,208.6843608005438Z" fill="#b48675" stroke="#b48675"></path><path d="M1554.5853483094834,208.6843608005438L1430.2624909207225,312.3762582510244L1472.2242352750618,333.0866877781227Z" fill="#ae8875" stroke="#ae8875"></path><path d="M1554.5853483094834,208.6843608005438L1472.2242352750618,333.0866877781227L1628.3213044970762,342.11296343943104Z" fill="#a4836f" stroke="#a4836f"></path><path d="M1554.5853483094834,208.6843608005438L1628.3213044970762,342.11296343943104L1645.844425384421,196.7163620714564Z" fill="#9c6859" stroke="#9c6859"></path><path d="M1645.844425384421,196.7163620714564L1628.3213044970762,342.11296343943104L1780.3711806994397,255.4162994446233Z" fill="#926554" stroke="#926554"></path><path d="M1780.3711806994397,255.4162994446233L1628.3213044970762,342.11296343943104L1750.2423154725693,352.40075267036445Z" fill="#8e7460" stroke="#8e7460"></path><path d="M1780.3711806994397,255.4162994446233L1750.2423154725693,352.40075267036445L1949.0591363213025,429.78440757025965Z" fill="#806e5e" stroke="#806e5e"></path><path d="M1780.3711806994397,255.4162994446233L1949.0591363213025,429.78440757025965L1971.6583966941107,159.99806624371558Z" fill="#805946" stroke="#805946"></path><path d="M1971.6583966941107,159.99806624371558L1949.0591363213025,429.78440757025965L2075.6111339840572,251.80084838764742Z" fill="#805846" stroke="#805846"></path><path d="M2075.6111339840572,251.80084838764742L1949.0591363213025,429.78440757025965L2149.1372130275704,342.30297545320354Z" fill="#806d5c" stroke="#806d5c"></path><path d="M-102.22202685195953,370.71939186775126L-78.04337244830094,860.5994922539685L-19.60581351770088,587.3306312179193Z" fill="#97707e" stroke="#97707e"></path><path d="M-102.22202685195953,370.71939186775126L-19.60581351770088,587.3306312179193L-22.83818647498265,505.223429731559Z" fill="#aa808c" stroke="#aa808c"></path><path d="M-102.22202685195953,370.71939186775126L-22.83818647498265,505.223429731559L16.501966976793483,407.044329715427Z" fill="#ac8087" stroke="#ac8087"></path><path d="M16.501966976793483,407.044329715427L-22.83818647498265,505.223429731559L53.9770714007318,500.83512051496655Z" fill="#b6818c" stroke="#b6818c"></path><path d="M16.501966976793483,407.044329715427L53.9770714007318,500.83512051496655L194.16824507759884,492.3627373808995Z" fill="#c4858e" stroke="#c4858e"></path><path d="M16.501966976793483,407.044329715427L194.16824507759884,492.3627373808995L259.4492973026354,389.546936849365Z" fill="#d28a8d" stroke="#d28a8d"></path><path d="M259.4492973026354,389.546936849365L194.16824507759884,492.3627373808995L349.5947629993316,411.6174198209774Z" fill="#e09a95" stroke="#e09a95"></path><path d="M349.5947629993316,411.6174198209774L194.16824507759884,492.3627373808995L364.4894577516243,530.8763786556665Z" fill="#e3a19c" stroke="#e3a19c"></path><path d="M349.5947629993316,411.6174198209774L364.4894577516243,530.8763786556665L539.4404347485397,554.9558560864534Z" fill="#edb6aa" stroke="#edb6aa"></path><path d="M349.5947629993316,411.6174198209774L539.4404347485397,554.9558560864534L559.9744897859637,324.8135296686087Z" fill="#f2c2ad" stroke="#f2c2ad"></path><path d="M559.9744897859637,324.8135296686087L539.4404347485397,554.9558560864534L716.0137279308401,498.6502947448753Z" fill="#fad6c1" stroke="#fad6c1"></path><path d="M559.9744897859637,324.8135296686087L716.0137279308401,498.6502947448753L674.8305257549509,296.63919898332097Z" fill="#fbd3b7" stroke="#fbd3b7"></path><path d="M674.8305257549509,296.63919898332097L716.0137279308401,498.6502947448753L844.8180592013523,306.78246233728714Z" fill="#fedfc6" stroke="#fedfc6"></path><path d="M844.8180592013523,306.78246233728714L716.0137279308401,498.6502947448753L819.7081733332016,486.20594352134503Z" fill="#fceede" stroke="#fceede"></path><path d="M844.8180592013523,306.78246233728714L819.7081733332016,486.20594352134503L987.1531515766401,336.8711700232234Z" fill="#f5e6d5" stroke="#f5e6d5"></path><path d="M987.1531515766401,336.8711700232234L819.7081733332016,486.20594352134503L1032.4233882827684,518.7923016108107Z" fill="#f1f0e9" stroke="#f1f0e9"></path><path d="M987.1531515766401,336.8711700232234L1032.4233882827684,518.7923016108107L1101.7114796640817,418.30994607065804Z" fill="#e8e8e0" stroke="#e8e8e0"></path><path d="M1101.7114796640817,418.30994607065804L1032.4233882827684,518.7923016108107L1128.5459748096764,631.043714247644Z" fill="#e1e1e1" stroke="#e1e1e1"></path><path d="M1101.7114796640817,418.30994607065804L1128.5459748096764,631.043714247644L1231.8163954047486,588.4529816417489Z" fill="#d6d6d6" stroke="#d6d6d6"></path><path d="M1101.7114796640817,418.30994607065804L1231.8163954047486,588.4529816417489L1267.49125338858,543.233377833385Z" fill="#d5d5d5" stroke="#d5d5d5"></path><path d="M1101.7114796640817,418.30994607065804L1267.49125338858,543.233377833385L1278.857060780283,349.898037040839Z" fill="#d4d4ce" stroke="#d4d4ce"></path><path d="M1278.857060780283,349.898037040839L1267.49125338858,543.233377833385L1335.680841896683,444.23473009839654Z" fill="#cacac4" stroke="#cacac4"></path><path d="M1278.857060780283,349.898037040839L1335.680841896683,444.23473009839654L1430.2624909207225,312.3762582510244Z" fill="#c3b8aa" stroke="#c3b8aa"></path><path d="M1430.2624909207225,312.3762582510244L1335.680841896683,444.23473009839654L1472.2242352750618,333.0866877781227Z" fill="#b9ac9e" stroke="#b9ac9e"></path><path d="M1472.2242352750618,333.0866877781227L1335.680841896683,444.23473009839654L1459.8676359141245,557.3844086576719Z" fill="#b7b7b2" stroke="#b7b7b2"></path><path d="M1472.2242352750618,333.0866877781227L1459.8676359141245,557.3844086576719L1668.6431371874642,468.46539604477584Z" fill="#a7a7a2" stroke="#a7a7a2"></path><path d="M1472.2242352750618,333.0866877781227L1668.6431371874642,468.46539604477584L1628.3213044970762,342.11296343943104Z" fill="#9f988c" stroke="#9f988c"></path><path d="M1628.3213044970762,342.11296343943104L1668.6431371874642,468.46539604477584L1750.2423154725693,352.40075267036445Z" fill="#938d82" stroke="#938d82"></path><path d="M1750.2423154725693,352.40075267036445L1668.6431371874642,468.46539604477584L1870.5198582692537,525.4003674769774Z" fill="#888883" stroke="#888883"></path><path d="M1750.2423154725693,352.40075267036445L1870.5198582692537,525.4003674769774L1949.0591363213025,429.78440757025965Z" fill="#808079" stroke="#808079"></path><path d="M1949.0591363213025,429.78440757025965L1870.5198582692537,525.4003674769774L1952.0591203635558,443.2088607759215Z" fill="#80807c" stroke="#80807c"></path><path d="M1949.0591363213025,429.78440757025965L1952.0591203635558,443.2088607759215L2069.683678393485,516.1187314777635Z" fill="#80807c" stroke="#80807c"></path><path d="M1949.0591363213025,429.78440757025965L2069.683678393485,516.1187314777635L2149.1372130275704,342.30297545320354Z" fill="#808079" stroke="#808079"></path><path d="M2149.1372130275704,342.30297545320354L2069.683678393485,516.1187314777635L2165.5966235371307,732.7088790154085Z" fill="#7c7c7c" stroke="#7c7c7c"></path><path d="M-22.83818647498265,505.223429731559L-19.60581351770088,587.3306312179193L53.9770714007318,500.83512051496655Z" fill="#b17c8c" stroke="#b17c8c"></path><path d="M53.9770714007318,500.83512051496655L-19.60581351770088,587.3306312179193L85.78977914643474,611.6606204537675Z" fill="#b27988" stroke="#b27988"></path><path d="M53.9770714007318,500.83512051496655L85.78977914643474,611.6606204537675L194.16824507759884,492.3627373808995Z" fill="#c5838f" stroke="#c5838f"></path><path d="M194.16824507759884,492.3627373808995L85.78977914643474,611.6606204537675L245.19698776421137,631.1366250354331Z" fill="#ca808a" stroke="#ca808a"></path><path d="M194.16824507759884,492.3627373808995L245.19698776421137,631.1366250354331L364.4894577516243,530.8763786556665Z" fill="#d99395" stroke="#d99395"></path><path d="M364.4894577516243,530.8763786556665L245.19698776421137,631.1366250354331L296.9490738050081,701.459527584957Z" fill="#d08d8c" stroke="#d08d8c"></path><path d="M364.4894577516243,530.8763786556665L296.9490738050081,701.459527584957L481.91989307291806,626.3000774220563Z" fill="#d79c93" stroke="#d79c93"></path><path d="M364.4894577516243,530.8763786556665L481.91989307291806,626.3000774220563L539.4404347485397,554.9558560864534Z" fill="#e7b4a7" stroke="#e7b4a7"></path><path d="M539.4404347485397,554.9558560864534L481.91989307291806,626.3000774220563L615.5103946023155,685.6272680754773Z" fill="#e3b9a9" stroke="#e3b9a9"></path><path d="M539.4404347485397,554.9558560864534L615.5103946023155,685.6272680754773L716.0137279308401,498.6502947448753Z" fill="#efcdbe" stroke="#efcdbe"></path><path d="M716.0137279308401,498.6502947448753L615.5103946023155,685.6272680754773L774.4660809508059,706.4346376131289Z" fill="#e7cec1" stroke="#e7cec1"></path><path d="M716.0137279308401,498.6502947448753L774.4660809508059,706.4346376131289L819.7081733332016,486.20594352134503Z" fill="#f5e4da" stroke="#f5e4da"></path><path d="M819.7081733332016,486.20594352134503L774.4660809508059,706.4346376131289L902.5792337697931,573.53799167322Z" fill="#ece1da" stroke="#ece1da"></path><path d="M819.7081733332016,486.20594352134503L902.5792337697931,573.53799167322L1032.4233882827684,518.7923016108107Z" fill="#f0edeb" stroke="#f0edeb"></path><path d="M902.5792337697931,573.53799167322L774.4660809508059,706.4346376131289L977.3222465917934,718.5427908261772Z" fill="#d4ceca" stroke="#d4ceca"></path><path d="M902.5792337697931,573.53799167322L977.3222465917934,718.5427908261772L1032.4233882827684,518.7923016108107Z" fill="#e0e0e0" stroke="#e0e0e0"></path><path d="M1032.4233882827684,518.7923016108107L977.3222465917934,718.5427908261772L1128.5459748096764,631.043714247644Z" fill="#d3d3d3" stroke="#d3d3d3"></path><path d="M1267.49125338858,543.233377833385L1231.8163954047486,588.4529816417489L1370.3158333559986,715.8876909397077Z" fill="#b8b8b8" stroke="#b8b8b8"></path><path d="M1267.49125338858,543.233377833385L1370.3158333559986,715.8876909397077L1459.8676359141245,557.3844086576719Z" fill="#b0b0b0" stroke="#b0b0b0"></path><path d="M1267.49125338858,543.233377833385L1459.8676359141245,557.3844086576719L1335.680841896683,444.23473009839654Z" fill="#c1c1c1" stroke="#c1c1c1"></path><path d="M1459.8676359141245,557.3844086576719L1370.3158333559986,715.8876909397077L1497.2999964980409,671.3089725177269Z" fill="#999999" stroke="#999999"></path><path d="M1459.8676359141245,557.3844086576719L1497.2999964980409,671.3089725177269L1633.6345698777586,657.2650951996911Z" fill="#929292" stroke="#929292"></path><path d="M1459.8676359141245,557.3844086576719L1633.6345698777586,657.2650951996911L1668.6431371874642,468.46539604477584Z" fill="#979797" stroke="#979797"></path><path d="M1668.6431371874642,468.46539604477584L1633.6345698777586,657.2650951996911L1811.0194860654883,608.612717112992Z" fill="#858585" stroke="#858585"></path><path d="M1668.6431371874642,468.46539604477584L1811.0194860654883,608.612717112992L1870.5198582692537,525.4003674769774Z" fill="#818181" stroke="#818181"></path><path d="M1870.5198582692537,525.4003674769774L1811.0194860654883,608.612717112992L1892.0732131437398,658.6521839280613Z" fill="#717171" stroke="#717171"></path><path d="M1870.5198582692537,525.4003674769774L1892.0732131437398,658.6521839280613L2044.7619971598033,614.6365697868168Z" fill="#717171" stroke="#717171"></path><path d="M1870.5198582692537,525.4003674769774L2044.7619971598033,614.6365697868168L1952.0591203635558,443.2088607759215Z" fill="#7d7d7d" stroke="#7d7d7d"></path><path d="M1952.0591203635558,443.2088607759215L2044.7619971598033,614.6365697868168L2069.683678393485,516.1187314777635Z" fill="#7d7d7d" stroke="#7d7d7d"></path><path d="M2069.683678393485,516.1187314777635L2044.7619971598033,614.6365697868168L2165.5966235371307,732.7088790154085Z" fill="#6c6c6c" stroke="#6c6c6c"></path><path d="M-19.60581351770088,587.3306312179193L-78.04337244830094,860.5994922539685L42.98593435785733,835.5128799658269Z" fill="#714150" stroke="#714150"></path><path d="M-19.60581351770088,587.3306312179193L42.98593435785733,835.5128799658269L85.78977914643474,611.6606204537675Z" fill="#965e6c" stroke="#965e6c"></path><path d="M85.78977914643474,611.6606204537675L42.98593435785733,835.5128799658269L246.52472243411466,776.709916346008Z" fill="#934f5b" stroke="#934f5b"></path><path d="M85.78977914643474,611.6606204537675L246.52472243411466,776.709916346008L245.19698776421137,631.1366250354331Z" fill="#b66972" stroke="#b66972"></path><path d="M245.19698776421137,631.1366250354331L246.52472243411466,776.709916346008L296.9490738050081,701.459527584957Z" fill="#b36d70" stroke="#b36d70"></path><path d="M296.9490738050081,701.459527584957L246.52472243411466,776.709916346008L366.57993669388816,820.140156254638Z" fill="#a2605e" stroke="#a2605e"></path><path d="M296.9490738050081,701.459527584957L366.57993669388816,820.140156254638L481.91989307291806,626.3000774220563Z" fill="#bb7f76" stroke="#bb7f76"></path><path d="M481.91989307291806,626.3000774220563L366.57993669388816,820.140156254638L564.4661594356876,767.9318929591682Z" fill="#ba887b" stroke="#ba887b"></path><path d="M481.91989307291806,626.3000774220563L564.4661594356876,767.9318929591682L615.5103946023155,685.6272680754773Z" fill="#cfa595" stroke="#cfa595"></path><path d="M615.5103946023155,685.6272680754773L564.4661594356876,767.9318929591682L655.1306498330086,815.9142117842566Z" fill="#bd9a8a" stroke="#bd9a8a"></path><path d="M615.5103946023155,685.6272680754773L655.1306498330086,815.9142117842566L774.4660809508059,706.4346376131289Z" fill="#c6ab9d" stroke="#c6ab9d"></path><path d="M774.4660809508059,706.4346376131289L655.1306498330086,815.9142117842566L736.9198006216902,830.8152720786165Z" fill="#b6a094" stroke="#b6a094"></path><path d="M774.4660809508059,706.4346376131289L736.9198006216902,830.8152720786165L963.2410835614428,852.412801909959Z" fill="#afa39c" stroke="#afa39c"></path><path d="M774.4660809508059,706.4346376131289L963.2410835614428,852.412801909959L977.3222465917934,718.5427908261772Z" fill="#b5b1ae" stroke="#b5b1ae"></path><path d="M977.3222465917934,718.5427908261772L963.2410835614428,852.412801909959L1059.106364309555,790.054027386941Z" fill="#a4a4a4" stroke="#a4a4a4"></path><path d="M977.3222465917934,718.5427908261772L1059.106364309555,790.054027386941L1128.5459748096764,631.043714247644Z" fill="#b7b7b7" stroke="#b7b7b7"></path><path d="M1128.5459748096764,631.043714247644L1059.106364309555,790.054027386941L1250.3935759980232,795.8829489804339Z" fill="#a6a6a6" stroke="#a6a6a6"></path><path d="M1128.5459748096764,631.043714247644L1250.3935759980232,795.8829489804339L1231.8163954047486,588.4529816417489Z" fill="#b3b3b3" stroke="#b3b3b3"></path><path d="M1231.8163954047486,588.4529816417489L1250.3935759980232,795.8829489804339L1370.3158333559986,715.8876909397077Z" fill="#a0a0a0" stroke="#a0a0a0"></path><path d="M1370.3158333559986,715.8876909397077L1250.3935759980232,795.8829489804339L1380.309823731659,858.4936089871917Z" fill="#7c7c7c" stroke="#7c7c7c"></path><path d="M1370.3158333559986,715.8876909397077L1380.309823731659,858.4936089871917L1500.9897356189322,731.0656382679008Z" fill="#777777" stroke="#777777"></path><path d="M1370.3158333559986,715.8876909397077L1500.9897356189322,731.0656382679008L1497.2999964980409,671.3089725177269Z" fill="#858585" stroke="#858585"></path><path d="M1497.2999964980409,671.3089725177269L1500.9897356189322,731.0656382679008L1633.6345698777586,657.2650951996911Z" fill="#7e7e7e" stroke="#7e7e7e"></path><path d="M1633.6345698777586,657.2650951996911L1500.9897356189322,731.0656382679008L1633.334438704187,855.5221099732444Z" fill="#656565" stroke="#656565"></path><path d="M1633.6345698777586,657.2650951996911L1633.334438704187,855.5221099732444L1869.3978705722839,750.6376335467212Z" fill="#525252" stroke="#525252"></path><path d="M1633.6345698777586,657.2650951996911L1869.3978705722839,750.6376335467212L1811.0194860654883,608.612717112992Z" fill="#646464" stroke="#646464"></path><path d="M1811.0194860654883,608.612717112992L1869.3978705722839,750.6376335467212L1892.0732131437398,658.6521839280613Z" fill="#5d5d5d" stroke="#5d5d5d"></path><path d="M1892.0732131437398,658.6521839280613L1869.3978705722839,750.6376335467212L1959.4298599055037,800.435929747764Z" fill="#494949" stroke="#494949"></path><path d="M1892.0732131437398,658.6521839280613L1959.4298599055037,800.435929747764L2044.7619971598033,614.6365697868168Z" fill="#575757" stroke="#575757"></path><path d="M2044.7619971598033,614.6365697868168L1959.4298599055037,800.435929747764L2165.5966235371307,732.7088790154085Z" fill="#505050" stroke="#505050"></path><path d="M-78.04337244830094,860.5994922539685L-30.547572465147823,1269.5301998767536L-23.883235058747232,1034.1095187468454Z" fill="#2b000e" stroke="#2b000e"></path><path d="M-78.04337244830094,860.5994922539685L-23.883235058747232,1034.1095187468454L-15.380750624462962,974.0052513440605Z" fill="#330715" stroke="#330715"></path><path d="M-78.04337244830094,860.5994922539685L-15.380750624462962,974.0052513440605L17.065255041234195,912.2332532098517Z" fill="#411221" stroke="#411221"></path><path d="M-78.04337244830094,860.5994922539685L17.065255041234195,912.2332532098517L42.98593435785733,835.5128799658269Z" fill="#521f2f" stroke="#521f2f"></path><path d="M42.98593435785733,835.5128799658269L17.065255041234195,912.2332532098517L215.7763220567722,902.1791035786737Z" fill="#61212e" stroke="#61212e"></path><path d="M42.98593435785733,835.5128799658269L215.7763220567722,902.1791035786737L246.52472243411466,776.709916346008Z" fill="#7c323d" stroke="#7c323d"></path><path d="M246.52472243411466,776.709916346008L215.7763220567722,902.1791035786737L366.57993669388816,820.140156254638Z" fill="#8a4546" stroke="#8a4546"></path><path d="M366.57993669388816,820.140156254638L215.7763220567722,902.1791035786737L421.5988962142728,974.0415656461846Z" fill="#7d3d39" stroke="#7d3d39"></path><path d="M366.57993669388816,820.140156254638L421.5988962142728,974.0415656461846L552.5196907459758,891.3390551914927Z" fill="#885347" stroke="#885347"></path><path d="M366.57993669388816,820.140156254638L552.5196907459758,891.3390551914927L564.4661594356876,767.9318929591682Z" fill="#9f6f61" stroke="#9f6f61"></path><path d="M564.4661594356876,767.9318929591682L552.5196907459758,891.3390551914927L655.1306498330086,815.9142117842566Z" fill="#a6806f" stroke="#a6806f"></path><path d="M655.1306498330086,815.9142117842566L552.5196907459758,891.3390551914927L663.8896956271492,895.3618911339436Z" fill="#9b7969" stroke="#9b7969"></path><path d="M655.1306498330086,815.9142117842566L663.8896956271492,895.3618911339436L736.9198006216902,830.8152720786165Z" fill="#a2877a" stroke="#a2877a"></path><path d="M736.9198006216902,830.8152720786165L663.8896956271492,895.3618911339436L737.8172244026791,996.4667401660699Z" fill="#917a6e" stroke="#917a6e"></path><path d="M736.9198006216902,830.8152720786165L737.8172244026791,996.4667401660699L894.3630990572274,998.6963748047128Z" fill="#887970" stroke="#887970"></path><path d="M736.9198006216902,830.8152720786165L894.3630990572274,998.6963748047128L963.2410835614428,852.412801909959Z" fill="#8f8782" stroke="#8f8782"></path><path d="M963.2410835614428,852.412801909959L894.3630990572274,998.6963748047128L1135.382860880345,974.5089907222427Z" fill="#777777" stroke="#777777"></path><path d="M963.2410835614428,852.412801909959L1135.382860880345,974.5089907222427L1059.106364309555,790.054027386941Z" fill="#858585" stroke="#858585"></path><path d="M1059.106364309555,790.054027386941L1135.382860880345,974.5089907222427L1178.948532299837,891.4482119621243Z" fill="#7a7a7a" stroke="#7a7a7a"></path><path d="M1059.106364309555,790.054027386941L1178.948532299837,891.4482119621243L1250.3935759980232,795.8829489804339Z" fill="#878787" stroke="#878787"></path><path d="M1250.3935759980232,795.8829489804339L1178.948532299837,891.4482119621243L1331.3910507725086,921.01521086297Z" fill="#6f6f6f" stroke="#6f6f6f"></path><path d="M1250.3935759980232,795.8829489804339L1331.3910507725086,921.01521086297L1380.309823731659,858.4936089871917Z" fill="#696969" stroke="#696969"></path><path d="M1380.309823731659,858.4936089871917L1331.3910507725086,921.01521086297L1510.5380006600171,937.7647182764485Z" fill="#4f4f4f" stroke="#4f4f4f"></path><path d="M1380.309823731659,858.4936089871917L1510.5380006600171,937.7647182764485L1500.9897356189322,731.0656382679008Z" fill="#585858" stroke="#585858"></path><path d="M1500.9897356189322,731.0656382679008L1510.5380006600171,937.7647182764485L1633.334438704187,855.5221099732444Z" fill="#4c4c4c" stroke="#4c4c4c"></path><path d="M1633.334438704187,855.5221099732444L1510.5380006600171,937.7647182764485L1680.8213616232388,943.1295795412734Z" fill="#303030" stroke="#303030"></path><path d="M1633.334438704187,855.5221099732444L1680.8213616232388,943.1295795412734L1869.3978705722839,750.6376335467212Z" fill="#323232" stroke="#323232"></path><path d="M1869.3978705722839,750.6376335467212L1680.8213616232388,943.1295795412734L1840.606709974818,998.302276377799Z" fill="#1b1b1b" stroke="#1b1b1b"></path><path d="M1869.3978705722839,750.6376335467212L1840.606709974818,998.302276377799L1959.4298599055037,800.435929747764Z" fill="#252525" stroke="#252525"></path><path d="M1959.4298599055037,800.435929747764L1840.606709974818,998.302276377799L1992.1674470580183,885.9718889452051Z" fill="#181818" stroke="#181818"></path><path d="M1959.4298599055037,800.435929747764L1992.1674470580183,885.9718889452051L2065.6251268053893,915.0795563566498Z" fill="#202020" stroke="#202020"></path><path d="M1959.4298599055037,800.435929747764L2065.6251268053893,915.0795563566498L2165.5966235371307,732.7088790154085Z" fill="#2e2e2e" stroke="#2e2e2e"></path><path d="M2165.5966235371307,732.7088790154085L2065.6251268053893,915.0795563566498L2145.7461066159885,1032.8527556732297Z" fill="#181818" stroke="#181818"></path><path d="M-15.380750624462962,974.0052513440605L-23.883235058747232,1034.1095187468454L127.09442777559161,1144.048788906075Z" fill="#390211" stroke="#390211"></path><path d="M-15.380750624462962,974.0052513440605L127.09442777559161,1144.048788906075L17.065255041234195,912.2332532098517Z" fill="#3c0311" stroke="#3c0311"></path><path d="M17.065255041234195,912.2332532098517L127.09442777559161,1144.048788906075L215.7763220567722,902.1791035786737Z" fill="#4b0813" stroke="#4b0813"></path><path d="M215.7763220567722,902.1791035786737L127.09442777559161,1144.048788906075L250.67382724257186,1146.295417015208Z" fill="#5a0d16" stroke="#5a0d16"></path><path d="M215.7763220567722,902.1791035786737L250.67382724257186,1146.295417015208L416.2728030013386,1044.122567778686Z" fill="#631f1f" stroke="#631f1f"></path><path d="M215.7763220567722,902.1791035786737L416.2728030013386,1044.122567778686L421.5988962142728,974.0415656461846Z" fill="#6a2c25" stroke="#6a2c25"></path><path d="M421.5988962142728,974.0415656461846L416.2728030013386,1044.122567778686L477.50267638009973,1025.139480899088Z" fill="#703a2e" stroke="#703a2e"></path><path d="M421.5988962142728,974.0415656461846L477.50267638009973,1025.139480899088L552.5196907459758,891.3390551914927Z" fill="#784739" stroke="#784739"></path><path d="M552.5196907459758,891.3390551914927L477.50267638009973,1025.139480899088L647.6603318040725,1057.066274760291Z" fill="#79503f" stroke="#79503f"></path><path d="M552.5196907459758,891.3390551914927L647.6603318040725,1057.066274760291L663.8896956271492,895.3618911339436Z" fill="#846252" stroke="#846252"></path><path d="M663.8896956271492,895.3618911339436L647.6603318040725,1057.066274760291L737.8172244026791,996.4667401660699Z" fill="#7d6254" stroke="#7d6254"></path><path d="M737.8172244026791,996.4667401660699L647.6603318040725,1057.066274760291L730.9443878568709,1125.0140408263542Z" fill="#7d6559" stroke="#7d6559"></path><path d="M737.8172244026791,996.4667401660699L730.9443878568709,1125.0140408263542L894.3630990572274,998.6963748047128Z" fill="#7d6e65" stroke="#7d6e65"></path><path d="M894.3630990572274,998.6963748047128L730.9443878568709,1125.0140408263542L897.0227679505479,1133.9232967165299Z" fill="#796f68" stroke="#796f68"></path><path d="M894.3630990572274,998.6963748047128L897.0227679505479,1133.9232967165299L1036.1753389262594,1095.624585596379Z" fill="#72706f" stroke="#72706f"></path><path d="M894.3630990572274,998.6963748047128L1036.1753389262594,1095.624585596379L1135.382860880345,974.5089907222427Z" fill="#6a6a6a" stroke="#6a6a6a"></path><path d="M1135.382860880345,974.5089907222427L1036.1753389262594,1095.624585596379L1193.9829142345116,1145.411591436714Z" fill="#606060" stroke="#606060"></path><path d="M1135.382860880345,974.5089907222427L1193.9829142345116,1145.411591436714L1328.2012566993944,1110.1486603764351Z" fill="#545454" stroke="#545454"></path><path d="M1135.382860880345,974.5089907222427L1328.2012566993944,1110.1486603764351L1331.3910507725086,921.01521086297Z" fill="#4e4e4e" stroke="#4e4e4e"></path><path d="M1135.382860880345,974.5089907222427L1331.3910507725086,921.01521086297L1178.948532299837,891.4482119621243Z" fill="#636363" stroke="#636363"></path><path d="M1331.3910507725086,921.01521086297L1328.2012566993944,1110.1486603764351L1510.5380006600171,937.7647182764485Z" fill="#3d3d3d" stroke="#3d3d3d"></path><path d="M1510.5380006600171,937.7647182764485L1328.2012566993944,1110.1486603764351L1580.1475617382675,1097.1778054896276Z" fill="#303030" stroke="#303030"></path><path d="M1510.5380006600171,937.7647182764485L1580.1475617382675,1097.1778054896276L1680.8213616232388,943.1295795412734Z" fill="#202020" stroke="#202020"></path><path d="M1680.8213616232388,943.1295795412734L1580.1475617382675,1097.1778054896276L1690.8468681538943,1096.9673419359606Z" fill="#181818" stroke="#181818"></path><path d="M1680.8213616232388,943.1295795412734L1690.8468681538943,1096.9673419359606L1840.606709974818,998.302276377799Z" fill="#0c0c0c" stroke="#0c0c0c"></path><path d="M1840.606709974818,998.302276377799L1690.8468681538943,1096.9673419359606L1864.235951716546,1063.20269679185Z" fill="#040404" stroke="#040404"></path><path d="M1840.606709974818,998.302276377799L1864.235951716546,1063.20269679185L1992.1674470580183,885.9718889452051Z" fill="#000000" stroke="#000000"></path><path d="M1992.1674470580183,885.9718889452051L1864.235951716546,1063.20269679185L1989.9141084076837,1139.143757581478Z" fill="#000000" stroke="#000000"></path><path d="M1992.1674470580183,885.9718889452051L1989.9141084076837,1139.143757581478L2065.6251268053893,915.0795563566498Z" fill="#000000" stroke="#000000"></path><path d="M2065.6251268053893,915.0795563566498L1989.9141084076837,1139.143757581478L2145.7461066159885,1032.8527556732297Z" fill="#000000" stroke="#000000"></path><path d="M-23.883235058747232,1034.1095187468454L-30.547572465147823,1269.5301998767536L121.5895582176745,1176.9208380451892Z" fill="#380210" stroke="#380210"></path><path d="M-23.883235058747232,1034.1095187468454L121.5895582176745,1176.9208380451892L127.09442777559161,1144.048788906075Z" fill="#420512" stroke="#420512"></path><path d="M127.09442777559161,1144.048788906075L121.5895582176745,1176.9208380451892L250.67382724257186,1146.295417015208Z" fill="#540b15" stroke="#540b15"></path><path d="M250.67382724257186,1146.295417015208L121.5895582176745,1176.9208380451892L219.60739848436788,1267.792248254409Z" fill="#5a0d16" stroke="#5a0d16"></path><path d="M250.67382724257186,1146.295417015208L219.60739848436788,1267.792248254409L356.29083388252184,1172.8816008137073Z" fill="#611c1d" stroke="#611c1d"></path><path d="M250.67382724257186,1146.295417015208L356.29083388252184,1172.8816008137073L416.2728030013386,1044.122567778686Z" fill="#672823" stroke="#672823"></path><path d="M416.2728030013386,1044.122567778686L356.29083388252184,1172.8816008137073L562.3982240306213,1188.212399209151Z" fill="#703b2f" stroke="#703b2f"></path><path d="M416.2728030013386,1044.122567778686L562.3982240306213,1188.212399209151L477.50267638009973,1025.139480899088Z" fill="#734235" stroke="#734235"></path><path d="M477.50267638009973,1025.139480899088L562.3982240306213,1188.212399209151L647.6603318040725,1057.066274760291Z" fill="#79503f" stroke="#79503f"></path><path d="M647.6603318040725,1057.066274760291L562.3982240306213,1188.212399209151L590.3958334866911,1203.8289916689973Z" fill="#7b5646" stroke="#7b5646"></path><path d="M647.6603318040725,1057.066274760291L590.3958334866911,1203.8289916689973L730.9443878568709,1125.0140408263542Z" fill="#7c5e50" stroke="#7c5e50"></path><path d="M730.9443878568709,1125.0140408263542L590.3958334866911,1203.8289916689973L805.8616296737455,1209.038704817649Z" fill="#7d6559" stroke="#7d6559"></path><path d="M730.9443878568709,1125.0140408263542L805.8616296737455,1209.038704817649L897.0227679505479,1133.9232967165299Z" fill="#7b6e67" stroke="#7b6e67"></path><path d="M897.0227679505479,1133.9232967165299L805.8616296737455,1209.038704817649L990.1548904750962,1286.7635135701858Z" fill="#756f6c" stroke="#756f6c"></path><path d="M897.0227679505479,1133.9232967165299L990.1548904750962,1286.7635135701858L1036.1753389262594,1095.624585596379Z" fill="#6f6f6f" stroke="#6f6f6f"></path><path d="M1036.1753389262594,1095.624585596379L990.1548904750962,1286.7635135701858L1089.6271793567576,1232.1891326457262Z" fill="#686868" stroke="#686868"></path><path d="M1036.1753389262594,1095.624585596379L1089.6271793567576,1232.1891326457262L1193.9829142345116,1145.411591436714Z" fill="#626262" stroke="#626262"></path><path d="M1193.9829142345116,1145.411591436714L1089.6271793567576,1232.1891326457262L1238.0900371016469,1176.8641389650293Z" fill="#5a5a5a" stroke="#5a5a5a"></path><path d="M1193.9829142345116,1145.411591436714L1238.0900371016469,1176.8641389650293L1328.2012566993944,1110.1486603764351Z" fill="#505050" stroke="#505050"></path><path d="M1328.2012566993944,1110.1486603764351L1238.0900371016469,1176.8641389650293L1431.1663534806576,1224.8721538449172Z" fill="#454545" stroke="#454545"></path><path d="M1328.2012566993944,1110.1486603764351L1431.1663534806576,1224.8721538449172L1580.1475617382675,1097.1778054896276Z" fill="#343434" stroke="#343434"></path><path d="M1580.1475617382675,1097.1778054896276L1431.1663534806576,1224.8721538449172L1490.8454005548265,1291.5651324414648Z" fill="#2c2c2c" stroke="#2c2c2c"></path><path d="M1580.1475617382675,1097.1778054896276L1490.8454005548265,1291.5651324414648L1639.1978705837391,1262.4248264962807Z" fill="#222222" stroke="#222222"></path><path d="M1580.1475617382675,1097.1778054896276L1639.1978705837391,1262.4248264962807L1690.8468681538943,1096.9673419359606Z" fill="#191919" stroke="#191919"></path><path d="M1690.8468681538943,1096.9673419359606L1639.1978705837391,1262.4248264962807L1752.4336703575682,1191.6868835443165Z" fill="#121212" stroke="#121212"></path><path d="M1690.8468681538943,1096.9673419359606L1752.4336703575682,1191.6868835443165L1864.235951716546,1063.20269679185Z" fill="#080808" stroke="#080808"></path><path d="M1864.235951716546,1063.20269679185L1752.4336703575682,1191.6868835443165L1914.079916474875,1195.6640933197923Z" fill="#000000" stroke="#000000"></path><path d="M1864.235951716546,1063.20269679185L1914.079916474875,1195.6640933197923L1989.9141084076837,1139.143757581478Z" fill="#000000" stroke="#000000"></path><path d="M1989.9141084076837,1139.143757581478L1914.079916474875,1195.6640933197923L2081.274474255042,1240.918520615669Z" fill="#000000" stroke="#000000"></path><path d="M1989.9141084076837,1139.143757581478L2081.274474255042,1240.918520615669L2145.7461066159885,1032.8527556732297Z" fill="#000000" stroke="#000000"></path><path d="M-30.547572465147823,1269.5301998767536L990.1548904750962,1286.7635135701858L219.60739848436788,1267.792248254409Z" fill="#6c3228" stroke="#6c3228"></path><path d="M-30.547572465147823,1269.5301998767536L219.60739848436788,1267.792248254409L121.5895582176745,1176.9208380451892Z" fill="#480713" stroke="#480713"></path><path d="M219.60739848436788,1267.792248254409L990.1548904750962,1286.7635135701858L590.3958334866911,1203.8289916689973Z" fill="#7b5646" stroke="#7b5646"></path><path d="M219.60739848436788,1267.792248254409L590.3958334866911,1203.8289916689973L562.3982240306213,1188.212399209151Z" fill="#713d31" stroke="#713d31"></path><path d="M219.60739848436788,1267.792248254409L562.3982240306213,1188.212399209151L356.29083388252184,1172.8816008137073Z" fill="#6b2f26" stroke="#6b2f26"></path><path d="M590.3958334866911,1203.8289916689973L990.1548904750962,1286.7635135701858L805.8616296737455,1209.038704817649Z" fill="#7d6e66" stroke="#7d6e66"></path><path d="M990.1548904750962,1286.7635135701858L1490.8454005548265,1291.5651324414648L1089.6271793567576,1232.1891326457262Z" fill="#585858" stroke="#585858"></path><path d="M1089.6271793567576,1232.1891326457262L1490.8454005548265,1291.5651324414648L1238.0900371016469,1176.8641389650293Z" fill="#4d4d4d" stroke="#4d4d4d"></path><path d="M1238.0900371016469,1176.8641389650293L1490.8454005548265,1291.5651324414648L1431.1663534806576,1224.8721538449172Z" fill="#3d3d3d" stroke="#3d3d3d"></path><path d="M1490.8454005548265,1291.5651324414648L2081.274474255042,1240.918520615669L1639.1978705837391,1262.4248264962807Z" fill="#0c0c0c" stroke="#0c0c0c"></path><path d="M1639.1978705837391,1262.4248264962807L2081.274474255042,1240.918520615669L1914.079916474875,1195.6640933197923Z" fill="#000000" stroke="#000000"></path><path d="M1639.1978705837391,1262.4248264962807L1914.079916474875,1195.6640933197923L1752.4336703575682,1191.6868835443165Z" fill="#080808" stroke="#080808"></path></g></svg>